<svg width="250" height="63" viewBox="0 0 250 63" fill="none" xmlns="http://www.w3.org/2000/svg">
<path fill-rule="evenodd" clip-rule="evenodd" d="M75.7137 62.4049C89.2552 62.4049 100.148 51.9943 100.148 38.5164C100.148 25.0976 89.1957 14.451 75.7137 14.451C62.2614 14.451 51.2496 25.1566 51.2496 38.5164C51.2496 52.1122 62.1126 62.4049 75.7137 62.4049ZM34.2259 61.4612H46.9044L34.1069 42.1145C41.7854 39.4602 46.4877 31.6448 46.4877 23.8C46.4877 11.8852 36.1902 2.94919 24.4641 2.94919H0V10.3517V40.0205V53.1444V61.4612H10.6249V44.6803H23.1248L34.2259 61.4612ZM10.6249 34.4466V13.1534H10.6547H18.2439H18.8689H24.4641H25.1188C31.0117 13.1534 35.8628 17.9311 35.8628 23.8C35.8628 29.6689 31.0117 34.4466 25.1188 34.4466H23.5712H18.2439H10.6249ZM188.957 0C192.617 0 195.564 2.9197 195.564 6.54721C195.564 10.1747 192.617 13.0944 188.957 13.0944C185.326 13.0944 182.35 10.1747 182.35 6.54721C182.35 2.9197 185.326 0 188.957 0ZM183.808 61.4612H194.046V18.0196H183.808V61.4612ZM107.38 61.4612H117.469V33.1784C117.469 28.1353 121.636 24.0064 126.695 24.0064C131.785 24.0064 135.951 28.1353 135.951 33.1784V33.6503V61.4612H146.011V33.6503V33.1784C146.011 28.1353 150.177 24.0064 155.267 24.0064C160.356 24.0064 164.493 28.1353 164.493 33.1784V61.4612H174.582V33.6503C174.582 23.1217 165.892 14.51 155.267 14.51C149.612 14.51 144.523 16.9579 140.981 20.7918C137.439 16.9579 132.35 14.51 126.695 14.51C116.07 14.51 107.38 23.1217 107.38 33.6503V61.4612ZM225.564 62.4049C239.105 62.4049 249.998 51.9943 249.998 38.5164C249.998 25.0976 239.046 14.451 225.564 14.451C212.111 14.451 201.1 25.1566 201.1 38.5164C201.1 52.1122 211.963 62.4049 225.564 62.4049ZM211.129 38.4575C211.129 30.4652 217.379 23.9474 225.564 23.9474C233.689 23.9474 239.939 30.4946 239.939 38.4575C239.939 46.4793 233.689 52.9085 225.564 52.9085C217.379 52.9085 211.129 46.5088 211.129 38.4575ZM61.2793 38.4575C61.2793 30.4652 67.5292 23.9474 75.7137 23.9474C83.8386 23.9474 90.0886 30.4946 90.0886 38.4575C90.0886 46.4793 83.8386 52.9085 75.7137 52.9085C67.5292 52.9085 61.2793 46.5088 61.2793 38.4575Z" fill="#FFF5FA"/>
</svg>
